<svg width="86" height="86" viewBox="0 0 86 86" fill="none" xmlns="http://www.w3.org/2000/svg">
<rect width="86" height="86" rx="25" fill="#1E374F"/>
<rect x="0.5" y="0.5" width="85" height="85" rx="24.5" stroke="white" stroke-opacity="0.35"/>
<path d="M38.7497 58.2293H35.9163C29.6688 58.2293 27.7705 56.331 27.7705 50.0835V35.9168C27.7705 29.6693 29.6688 27.771 35.9163 27.771H38.0413C40.5205 27.771 41.2997 28.5785 42.2913 29.896L44.4163 32.7293C44.8838 33.3527 44.9547 33.4377 45.833 33.4377H50.083C56.3305 33.4377 58.2288 35.336 58.2288 41.5835V44.4168C58.2288 44.9977 57.7472 45.4793 57.1663 45.4793C56.5855 45.4793 56.1038 44.9977 56.1038 44.4168V41.5835C56.1038 36.526 55.1547 35.5627 50.083 35.5627H45.833C44.0197 35.5627 43.4247 34.9393 42.7163 34.0043L40.5913 31.171C39.8547 30.1935 39.628 29.896 38.0413 29.896H35.9163C30.8447 29.896 29.8955 30.8593 29.8955 35.9168V50.0835C29.8955 55.141 30.8447 56.1043 35.9163 56.1043H38.7497C39.3305 56.1043 39.8122 56.586 39.8122 57.1668C39.8122 57.7477 39.3305 58.2293 38.7497 58.2293Z" fill="#ECEBEC"/>
<path d="M53.3989 58.3139C53.3847 58.3139 53.3705 58.3139 53.3563 58.3139H45.4797C43.1138 58.1439 41.9238 56.3306 41.9238 54.6022C41.9238 53.2139 42.703 51.7547 44.2046 51.1597C43.893 49.3889 44.3464 47.7456 45.5222 46.5131C46.9672 44.9972 49.2905 44.3881 51.3022 44.9972C53.0588 45.5356 54.3197 46.9239 54.8438 48.8506C56.3313 49.3039 57.5072 50.4797 57.9889 52.0806C58.5555 53.9364 58.0313 55.8347 56.6288 57.0531C55.7788 57.8606 54.6172 58.3139 53.3989 58.3139ZM45.5363 53.0156C44.4596 53.1147 44.063 53.9222 44.063 54.6022C44.063 55.2822 44.4597 56.1039 45.5647 56.1889H53.3705C54.0505 56.2456 54.7305 55.9339 55.2405 55.4806C56.1614 54.6731 56.218 53.5256 55.9771 52.7039C55.7363 51.8822 55.028 50.9614 53.838 50.8056C53.3705 50.7489 53.0022 50.3947 52.9172 49.9272C52.6055 48.0147 51.5288 47.3064 50.693 47.0372C49.4463 46.6547 47.973 47.0514 47.0805 47.9864C46.4713 48.6239 45.8763 49.7714 46.5422 51.5989C46.7405 52.1514 46.4572 52.7606 45.9047 52.9589C45.7772 53.0014 45.6496 53.0156 45.5363 53.0156Z" fill="#ECEBEC"/>
</svg>
