<svg width="86" height="86" viewBox="0 0 86 86" fill="none" xmlns="http://www.w3.org/2000/svg">
<rect width="86" height="86" rx="25" fill="#4F91CE"/>
<rect x="0.5" y="0.5" width="85" height="85" rx="24.5" stroke="white" stroke-opacity="0.35"/>
<path d="M44.2142 45.4286C44.2142 44.7608 43.6702 44.2144 42.9999 44.2144C42.3296 44.2144 41.7856 44.7608 41.7856 45.4286V50.2858C41.7856 50.9536 42.3296 51.5001 42.9999 51.5001C43.6702 51.5001 44.2142 50.9536 44.2142 50.2858V45.4286Z" fill="#ECEBEC"/>
<path fill-rule="evenodd" clip-rule="evenodd" d="M43 26C49.0362 26 53.9286 30.8936 53.9286 36.9286C57.2812 36.9286 60 39.6486 60 43V53.9286C60 57.28 57.2812 60 53.9286 60H32.0714C28.7188 60 26 57.28 26 53.9286V43C26 39.6486 28.7188 36.9286 32.0714 36.9286C32.0714 30.8936 36.9638 26 43 26ZM43 28.4286C38.3056 28.4286 34.5 32.2293 34.5 36.9286H51.5C51.5 32.2293 47.6944 28.4286 43 28.4286ZM57.5714 53.9286V43C57.5714 40.9843 55.9406 39.3571 53.9286 39.3571H32.0714C30.0594 39.3571 28.4286 40.9843 28.4286 43V53.9286C28.4286 55.9443 30.0594 57.5714 32.0714 57.5714H53.9286C55.9406 57.5714 57.5714 55.9443 57.5714 53.9286Z" fill="#ECEBEC"/>
</svg>
