<svg width="86" height="86" viewBox="0 0 86 86" fill="none" xmlns="http://www.w3.org/2000/svg">
<rect width="86" height="86" rx="25" fill="#1E374F"/>
<rect x="0.5" y="0.5" width="85" height="85" rx="24.5" stroke="white" stroke-opacity="0.35"/>
<path fill-rule="evenodd" clip-rule="evenodd" d="M35.625 27C32.5189 27 30 29.48 30 32.5357V42.5C30 48.9325 34.6722 54.1251 40.4254 57.2251C41.3457 57.7122 42.3592 57.9778 43.3751 57.9889C43.4167 58 43.4584 58 43.5 58C43.5416 58 43.5833 58 43.6249 57.9889C44.6408 57.9778 45.6543 57.7122 46.5746 57.2251C52.3278 54.1251 57 48.9325 57 42.5V32.5357C57 29.48 54.4811 27 51.375 27H35.625ZM44.625 55.6307C44.9242 55.5421 45.2167 55.4315 45.4957 55.2765C50.8755 52.3868 54.75 47.7921 54.75 42.5V32.5357C54.75 30.6979 53.2391 29.2143 51.375 29.2143H44.625V55.6307ZM42.375 29.2143H35.625C33.7609 29.2143 32.25 30.6979 32.25 32.5357V42.5C32.25 47.7921 36.1245 52.3868 41.5043 55.2765C41.7833 55.4315 42.0758 55.5421 42.375 55.6307V29.2143Z" fill="#ECEBEC"/>
</svg>
