<svg width="86" height="86" viewBox="0 0 86 86" fill="none" xmlns="http://www.w3.org/2000/svg">
<rect width="86" height="86" rx="25" fill="#F7941D"/>
<rect x="0.5" y="0.5" width="85" height="85" rx="24.5" stroke="white" stroke-opacity="0.35"/>
<path d="M48.864 38.6369C49.2623 38.1644 49.1971 37.4556 48.7201 37.0506C48.2431 36.6568 47.5332 36.7243 47.136 37.1968L42.2423 43.0693L39.7347 40.9094C39.2633 40.5044 38.5534 40.5606 38.1473 41.0219C37.7423 41.4944 37.7951 42.2032 38.2654 42.6082L41.6404 45.5219C41.8699 45.7131 42.1669 45.8144 42.4673 45.7919C42.7688 45.7581 43.0467 45.6231 43.239 45.3869L48.864 38.6369Z" fill="#ECEBEC"/>
<path fill-rule="evenodd" clip-rule="evenodd" d="M35.625 26.667C32.5189 26.667 30 29.187 30 32.292V42.417C30 48.9532 34.6722 54.2295 40.4254 57.3795C42.3413 58.4258 44.6587 58.4258 46.5746 57.3795C52.3278 54.2295 57 48.9532 57 42.417V32.292C57 29.187 54.4811 26.667 51.375 26.667H35.625ZM32.25 32.292C32.25 30.4245 33.7609 28.917 35.625 28.917H51.375C53.2391 28.917 54.75 30.4245 54.75 32.292V42.417C54.75 47.7945 50.8755 52.4633 45.4957 55.3995C44.2526 56.0858 42.7474 56.0858 41.5043 55.3995C36.1245 52.4633 32.25 47.7945 32.25 42.417V32.292Z" fill="#ECEBEC"/>
</svg>
