<svg width="86" height="86" viewBox="0 0 86 86" fill="none" xmlns="http://www.w3.org/2000/svg">
<rect width="86" height="86" rx="25" fill="#F7941D"/>
<rect x="0.5" y="0.5" width="85" height="85" rx="24.5" stroke="white" stroke-opacity="0.35"/>
<path d="M51.9533 44.0626H47.25C43.7225 44.0626 41.9375 42.0651 41.9375 38.1126V34.0468C41.9375 32.6018 42.1075 30.5335 43.6092 29.4001C44.87 28.4651 46.6833 28.3943 49.3608 29.1735C52.8742 30.1935 55.8067 33.126 56.8267 36.6393C57.6058 39.3026 57.535 41.1301 56.6 42.3768C55.4667 43.8926 53.3983 44.0626 51.9533 44.0626ZM46.23 30.7601C45.6492 30.7601 45.1958 30.8735 44.8983 31.1001C44.3458 31.511 44.0767 32.4743 44.0767 34.0468V38.1268C44.0767 41.3001 45.295 41.9518 47.2642 41.9518H51.9675C53.5258 41.9518 54.4892 41.6826 54.9142 41.1301C55.41 40.4785 55.3675 39.1751 54.815 37.2626C53.9933 34.4718 51.585 32.0493 48.7942 31.2418C47.7458 30.916 46.8958 30.7601 46.23 30.7601Z" fill="#ECEBEC"/>
<path d="M41.6827 58.229C40.9319 58.229 40.1669 58.1723 39.4019 58.0448C33.6077 57.1098 28.8902 52.4065 27.9552 46.6123C26.751 39.1606 31.5535 32.134 38.906 30.6323C39.4869 30.519 40.0394 30.8873 40.1669 31.454C40.2802 32.0348 39.9119 32.5873 39.3452 32.7148C33.126 33.9898 29.046 39.9398 30.0802 46.2723C30.8735 51.174 34.8544 55.1548 39.756 55.9481C46.1169 56.9681 52.0527 52.874 53.3135 46.6265C53.4269 46.0456 53.9935 45.6773 54.5602 45.7906C55.141 45.904 55.5094 46.4706 55.396 47.0373C54.0502 53.6531 48.2702 58.229 41.6827 58.229Z" fill="#ECEBEC"/>
</svg>
